<mxfile host="Electron" modified="2023-10-18T15:54:19.830Z" agent="Mozilla/5.0 (Windows NT 10.0; Win64; x64) AppleWebKit/537.36 (KHTML, like Gecko) draw.io/21.7.5 Chrome/114.0.5735.289 Electron/25.8.1 Safari/537.36" etag="2YR_iOz1rc98NQlsOdpZ" version="21.7.5" type="device" pages="3">
  <diagram name="all" id="IkguYgr2icnWj7yTudxD">
    <mxGraphModel dx="1434" dy="854" grid="1" gridSize="10" guides="1" tooltips="1" connect="1" arrows="1" fold="1" page="1" pageScale="1" pageWidth="850" pageHeight="1100" math="0" shadow="0">
      <root>
        <mxCell id="0" />
        <mxCell id="1" parent="0" />
        <mxCell id="JAhL-_oYKMXNqXcBaCj1-3" value="OpsMon" style="points=[[0,0],[0.25,0],[0.5,0],[0.75,0],[1,0],[1,0.25],[1,0.5],[1,0.75],[1,1],[0.75,1],[0.5,1],[0.25,1],[0,1],[0,0.75],[0,0.5],[0,0.25]];outlineConnect=0;html=1;whiteSpace=wrap;fontSize=12;fontStyle=0;container=1;pointerEvents=0;collapsible=0;recursiveResize=0;shape=mxgraph.aws4.group;grIcon=mxgraph.aws4.group_account;strokeColor=#6c8ebf;fillColor=#dae8fc;verticalAlign=top;align=left;spacingLeft=30;dashed=0;labelBackgroundColor=none;" parent="1" vertex="1">
          <mxGeometry x="110" y="30" width="400" height="460" as="geometry" />
        </mxCell>
        <mxCell id="JAhL-_oYKMXNqXcBaCj1-4" value="OpenID &lt;br&gt;Connect" style="sketch=0;outlineConnect=0;fontColor=#232F3E;gradientColor=none;fillColor=#DD344C;strokeColor=none;dashed=0;verticalLabelPosition=bottom;verticalAlign=top;align=center;html=1;fontSize=12;fontStyle=0;aspect=fixed;pointerEvents=1;shape=mxgraph.aws4.access_analyzer;labelBackgroundColor=none;" parent="JAhL-_oYKMXNqXcBaCj1-3" vertex="1">
          <mxGeometry x="25" y="148" width="50" height="49.36" as="geometry" />
        </mxCell>
        <mxCell id="JAhL-_oYKMXNqXcBaCj1-19" value="Runner Role" style="sketch=0;outlineConnect=0;fontColor=#232F3E;gradientColor=none;fillColor=#DD344C;strokeColor=none;dashed=0;verticalLabelPosition=bottom;verticalAlign=top;align=center;html=1;fontSize=12;fontStyle=0;aspect=fixed;pointerEvents=1;shape=mxgraph.aws4.role;labelBackgroundColor=none;" parent="JAhL-_oYKMXNqXcBaCj1-3" vertex="1">
          <mxGeometry x="215" y="158.58" width="50" height="28.21" as="geometry" />
        </mxCell>
        <mxCell id="THyelt29D7TjfC56ru4M-6" value="InfraTerraform" style="sketch=0;outlineConnect=0;fontColor=#232F3E;gradientColor=none;fillColor=#DD344C;strokeColor=none;dashed=0;verticalLabelPosition=bottom;verticalAlign=top;align=center;html=1;fontSize=12;fontStyle=0;aspect=fixed;pointerEvents=1;shape=mxgraph.aws4.role;labelBackgroundColor=none;" parent="JAhL-_oYKMXNqXcBaCj1-3" vertex="1">
          <mxGeometry x="215" y="340" width="50" height="28.21" as="geometry" />
        </mxCell>
        <mxCell id="THyelt29D7TjfC56ru4M-4" value="MFA&lt;br&gt;Token" style="sketch=0;outlineConnect=0;fontColor=#232F3E;gradientColor=none;fillColor=#DD344C;strokeColor=none;dashed=0;verticalLabelPosition=bottom;verticalAlign=top;align=center;html=1;fontSize=12;fontStyle=0;aspect=fixed;pointerEvents=1;shape=mxgraph.aws4.temporary_security_credential;labelBackgroundColor=none;" parent="JAhL-_oYKMXNqXcBaCj1-3" vertex="1">
          <mxGeometry x="25" y="328" width="50" height="50.65" as="geometry" />
        </mxCell>
        <mxCell id="JAhL-_oYKMXNqXcBaCj1-16" value="Tfstate" style="outlineConnect=0;dashed=0;verticalLabelPosition=bottom;verticalAlign=top;align=center;shape=mxgraph.aws3.bucket_with_objects;fillColor=#E05243;gradientColor=none;labelBackgroundColor=none;html=1;labelBorderColor=none;aspect=fixed;" parent="JAhL-_oYKMXNqXcBaCj1-3" vertex="1">
          <mxGeometry x="335" y="50" width="50" height="51.25" as="geometry" />
        </mxCell>
        <mxCell id="JAhL-_oYKMXNqXcBaCj1-20" style="edgeStyle=orthogonalEdgeStyle;rounded=0;orthogonalLoop=1;jettySize=auto;html=1;labelBackgroundColor=none;" parent="JAhL-_oYKMXNqXcBaCj1-3" source="JAhL-_oYKMXNqXcBaCj1-4" target="JAhL-_oYKMXNqXcBaCj1-19" edge="1">
          <mxGeometry relative="1" as="geometry" />
        </mxCell>
        <mxCell id="JAhL-_oYKMXNqXcBaCj1-21" value="Assume Role" style="edgeLabel;html=1;align=center;verticalAlign=middle;resizable=0;points=[];labelBackgroundColor=none;" parent="JAhL-_oYKMXNqXcBaCj1-20" vertex="1" connectable="0">
          <mxGeometry x="0.3385" y="4" relative="1" as="geometry">
            <mxPoint x="-33" y="13" as="offset" />
          </mxGeometry>
        </mxCell>
        <mxCell id="THyelt29D7TjfC56ru4M-16" style="edgeStyle=orthogonalEdgeStyle;rounded=0;orthogonalLoop=1;jettySize=auto;html=1;entryX=0;entryY=0.12;entryDx=0;entryDy=0;entryPerimeter=0;labelBackgroundColor=default;" parent="JAhL-_oYKMXNqXcBaCj1-3" source="JAhL-_oYKMXNqXcBaCj1-19" target="JAhL-_oYKMXNqXcBaCj1-16" edge="1">
          <mxGeometry relative="1" as="geometry">
            <Array as="points">
              <mxPoint x="240" y="150" />
              <mxPoint x="300" y="150" />
              <mxPoint x="300" y="56" />
            </Array>
          </mxGeometry>
        </mxCell>
        <mxCell id="THyelt29D7TjfC56ru4M-17" style="edgeStyle=orthogonalEdgeStyle;rounded=0;orthogonalLoop=1;jettySize=auto;html=1;entryX=0;entryY=0.12;entryDx=0;entryDy=0;entryPerimeter=0;labelBackgroundColor=default;" parent="JAhL-_oYKMXNqXcBaCj1-3" source="THyelt29D7TjfC56ru4M-6" target="JAhL-_oYKMXNqXcBaCj1-16" edge="1">
          <mxGeometry relative="1" as="geometry">
            <Array as="points">
              <mxPoint x="240" y="330" />
              <mxPoint x="300" y="330" />
              <mxPoint x="300" y="56" />
            </Array>
          </mxGeometry>
        </mxCell>
        <mxCell id="THyelt29D7TjfC56ru4M-20" value="Terraform Init" style="edgeLabel;html=1;align=center;verticalAlign=middle;resizable=0;points=[];labelBackgroundColor=#7F00FF;labelBorderColor=#7F00FF;fontColor=#FFFFFF;" parent="THyelt29D7TjfC56ru4M-17" vertex="1" connectable="0">
          <mxGeometry x="0.4017" y="-1" relative="1" as="geometry">
            <mxPoint y="-3" as="offset" />
          </mxGeometry>
        </mxCell>
        <mxCell id="THyelt29D7TjfC56ru4M-8" style="edgeStyle=orthogonalEdgeStyle;rounded=0;orthogonalLoop=1;jettySize=auto;html=1;labelBackgroundColor=none;" parent="JAhL-_oYKMXNqXcBaCj1-3" source="THyelt29D7TjfC56ru4M-4" target="THyelt29D7TjfC56ru4M-6" edge="1">
          <mxGeometry relative="1" as="geometry" />
        </mxCell>
        <mxCell id="THyelt29D7TjfC56ru4M-14" value="Assume Role" style="edgeLabel;html=1;align=center;verticalAlign=middle;resizable=0;points=[];labelBackgroundColor=none;" parent="THyelt29D7TjfC56ru4M-8" vertex="1" connectable="0">
          <mxGeometry x="-0.2568" y="-2" relative="1" as="geometry">
            <mxPoint x="8" y="5" as="offset" />
          </mxGeometry>
        </mxCell>
        <mxCell id="JAhL-_oYKMXNqXcBaCj1-9" value="Target Account" style="points=[[0,0],[0.25,0],[0.5,0],[0.75,0],[1,0],[1,0.25],[1,0.5],[1,0.75],[1,1],[0.75,1],[0.5,1],[0.25,1],[0,1],[0,0.75],[0,0.5],[0,0.25]];outlineConnect=0;html=1;whiteSpace=wrap;fontSize=12;fontStyle=0;container=1;pointerEvents=0;collapsible=0;recursiveResize=0;shape=mxgraph.aws4.group;grIcon=mxgraph.aws4.group_account;strokeColor=#d6b656;fillColor=#fff2cc;verticalAlign=top;align=left;spacingLeft=30;dashed=0;labelBackgroundColor=none;" parent="1" vertex="1">
          <mxGeometry x="520" y="30" width="190" height="460" as="geometry" />
        </mxCell>
        <mxCell id="JAhL-_oYKMXNqXcBaCj1-15" style="edgeStyle=orthogonalEdgeStyle;rounded=0;orthogonalLoop=1;jettySize=auto;html=1;labelBackgroundColor=default;" parent="JAhL-_oYKMXNqXcBaCj1-9" source="JAhL-_oYKMXNqXcBaCj1-10" target="JAhL-_oYKMXNqXcBaCj1-14" edge="1">
          <mxGeometry relative="1" as="geometry" />
        </mxCell>
        <mxCell id="JAhL-_oYKMXNqXcBaCj1-18" value="Terraform Apply" style="edgeLabel;html=1;align=center;verticalAlign=middle;resizable=0;points=[];labelBackgroundColor=#7F00FF;labelBorderColor=#7F00FF;fontColor=#FFFFFF;" parent="JAhL-_oYKMXNqXcBaCj1-15" vertex="1" connectable="0">
          <mxGeometry x="0.1563" y="-2" relative="1" as="geometry">
            <mxPoint x="2" y="4" as="offset" />
          </mxGeometry>
        </mxCell>
        <mxCell id="JAhL-_oYKMXNqXcBaCj1-14" value="Resource Changes" style="sketch=0;outlineConnect=0;fontColor=#232F3E;gradientColor=none;fillColor=#E7157B;strokeColor=none;dashed=0;verticalLabelPosition=bottom;verticalAlign=top;align=center;html=1;fontSize=12;fontStyle=0;aspect=fixed;pointerEvents=1;shape=mxgraph.aws4.change_set;labelBackgroundColor=none;" parent="JAhL-_oYKMXNqXcBaCj1-9" vertex="1">
          <mxGeometry x="110" y="330" width="50" height="60" as="geometry" />
        </mxCell>
        <mxCell id="JAhL-_oYKMXNqXcBaCj1-10" value="Target Role" style="sketch=0;outlineConnect=0;fontColor=#232F3E;gradientColor=none;fillColor=#DD344C;strokeColor=none;dashed=0;verticalLabelPosition=bottom;verticalAlign=top;align=center;html=1;fontSize=12;fontStyle=0;aspect=fixed;pointerEvents=1;shape=mxgraph.aws4.role;labelBackgroundColor=none;" parent="JAhL-_oYKMXNqXcBaCj1-9" vertex="1">
          <mxGeometry x="20" y="250" width="50" height="28.21" as="geometry" />
        </mxCell>
        <mxCell id="THyelt29D7TjfC56ru4M-9" style="edgeStyle=orthogonalEdgeStyle;rounded=0;orthogonalLoop=1;jettySize=auto;html=1;labelBackgroundColor=default;strokeColor=default;" parent="1" source="THyelt29D7TjfC56ru4M-6" target="JAhL-_oYKMXNqXcBaCj1-10" edge="1">
          <mxGeometry relative="1" as="geometry">
            <Array as="points">
              <mxPoint x="490" y="384" />
              <mxPoint x="490" y="294" />
            </Array>
          </mxGeometry>
        </mxCell>
        <mxCell id="JAhL-_oYKMXNqXcBaCj1-7" style="edgeStyle=orthogonalEdgeStyle;rounded=0;orthogonalLoop=1;jettySize=auto;html=1;labelBackgroundColor=none;" parent="1" source="JAhL-_oYKMXNqXcBaCj1-2" target="JAhL-_oYKMXNqXcBaCj1-4" edge="1">
          <mxGeometry relative="1" as="geometry">
            <mxPoint x="210" y="247.5" as="targetPoint" />
          </mxGeometry>
        </mxCell>
        <mxCell id="JAhL-_oYKMXNqXcBaCj1-22" value="JWT" style="edgeLabel;align=center;verticalAlign=middle;resizable=0;points=[];labelBorderColor=none;spacingTop=21;spacing=2;spacingLeft=0;html=1;horizontal=1;labelBackgroundColor=none;" parent="JAhL-_oYKMXNqXcBaCj1-7" vertex="1" connectable="0">
          <mxGeometry x="-0.26" relative="1" as="geometry">
            <mxPoint x="-11" as="offset" />
          </mxGeometry>
        </mxCell>
        <mxCell id="JAhL-_oYKMXNqXcBaCj1-2" value="GitLab CI" style="verticalLabelPosition=bottom;html=1;verticalAlign=top;align=center;strokeColor=#b85450;fillColor=#f8cecc;shape=mxgraph.azure.git_repository;labelBackgroundColor=none;" parent="1" vertex="1">
          <mxGeometry x="10" y="177.36" width="50" height="50" as="geometry" />
        </mxCell>
        <mxCell id="THyelt29D7TjfC56ru4M-7" style="edgeStyle=orthogonalEdgeStyle;rounded=0;orthogonalLoop=1;jettySize=auto;html=1;labelBackgroundColor=none;" parent="1" source="THyelt29D7TjfC56ru4M-1" target="THyelt29D7TjfC56ru4M-4" edge="1">
          <mxGeometry relative="1" as="geometry" />
        </mxCell>
        <mxCell id="THyelt29D7TjfC56ru4M-21" value="Access&lt;br&gt;Keys" style="edgeLabel;html=1;align=center;verticalAlign=middle;resizable=0;points=[];labelBackgroundColor=none;" parent="THyelt29D7TjfC56ru4M-7" vertex="1" connectable="0">
          <mxGeometry x="-0.5818" relative="1" as="geometry">
            <mxPoint x="4" y="17" as="offset" />
          </mxGeometry>
        </mxCell>
        <mxCell id="THyelt29D7TjfC56ru4M-1" value="" style="sketch=0;html=1;dashed=0;whitespace=wrap;fillColor=#f8cecc;strokeColor=#b85450;points=[[0.005,0.63,0],[0.1,0.2,0],[0.9,0.2,0],[0.5,0,0],[0.995,0.63,0],[0.72,0.99,0],[0.5,1,0],[0.28,0.99,0]];verticalLabelPosition=bottom;align=center;verticalAlign=top;shape=mxgraph.kubernetes.icon;prIcon=user;labelBackgroundColor=none;" parent="1" vertex="1">
          <mxGeometry x="10" y="359.33" width="50" height="48" as="geometry" />
        </mxCell>
        <mxCell id="THyelt29D7TjfC56ru4M-19" style="edgeStyle=orthogonalEdgeStyle;rounded=0;orthogonalLoop=1;jettySize=auto;html=1;labelBackgroundColor=default;" parent="1" source="JAhL-_oYKMXNqXcBaCj1-19" target="JAhL-_oYKMXNqXcBaCj1-10" edge="1">
          <mxGeometry relative="1" as="geometry" />
        </mxCell>
      </root>
    </mxGraphModel>
  </diagram>
  <diagram name="assume-role" id="XOSu8L8YK24p1G4HvRk4">
    <mxGraphModel dx="780" dy="512" grid="1" gridSize="10" guides="1" tooltips="1" connect="1" arrows="1" fold="1" page="1" pageScale="1" pageWidth="850" pageHeight="1100" math="0" shadow="0">
      <root>
        <mxCell id="PpsXkuYuQDZINH-6zSad-0" />
        <mxCell id="PpsXkuYuQDZINH-6zSad-1" parent="PpsXkuYuQDZINH-6zSad-0" />
        <mxCell id="PpsXkuYuQDZINH-6zSad-5" value="OpsMon" style="points=[[0,0],[0.25,0],[0.5,0],[0.75,0],[1,0],[1,0.25],[1,0.5],[1,0.75],[1,1],[0.75,1],[0.5,1],[0.25,1],[0,1],[0,0.75],[0,0.5],[0,0.25]];outlineConnect=0;gradientColor=none;html=1;whiteSpace=wrap;fontSize=12;fontStyle=0;container=1;pointerEvents=0;collapsible=0;recursiveResize=0;shape=mxgraph.aws4.group;grIcon=mxgraph.aws4.group_account;strokeColor=#CD2264;fillColor=none;verticalAlign=top;align=left;spacingLeft=30;fontColor=#CD2264;dashed=0;" parent="PpsXkuYuQDZINH-6zSad-1" vertex="1">
          <mxGeometry x="170" y="30" width="360" height="380" as="geometry" />
        </mxCell>
        <mxCell id="PpsXkuYuQDZINH-6zSad-6" style="edgeStyle=orthogonalEdgeStyle;rounded=0;orthogonalLoop=1;jettySize=auto;html=1;exitX=0;exitY=0.75;exitDx=0;exitDy=0;exitPerimeter=0;" parent="PpsXkuYuQDZINH-6zSad-5" source="PpsXkuYuQDZINH-6zSad-10" target="PpsXkuYuQDZINH-6zSad-13" edge="1">
          <mxGeometry relative="1" as="geometry" />
        </mxCell>
        <mxCell id="PpsXkuYuQDZINH-6zSad-7" value="GitLab Token" style="edgeLabel;html=1;align=center;verticalAlign=middle;resizable=0;points=[];" parent="PpsXkuYuQDZINH-6zSad-6" vertex="1" connectable="0">
          <mxGeometry x="-0.118" relative="1" as="geometry">
            <mxPoint y="58" as="offset" />
          </mxGeometry>
        </mxCell>
        <mxCell id="PpsXkuYuQDZINH-6zSad-10" value="Runner" style="sketch=0;points=[[0,0,0],[0.25,0,0],[0.5,0,0],[0.75,0,0],[1,0,0],[0,1,0],[0.25,1,0],[0.5,1,0],[0.75,1,0],[1,1,0],[0,0.25,0],[0,0.5,0],[0,0.75,0],[1,0.25,0],[1,0.5,0],[1,0.75,0]];outlineConnect=0;fontColor=#232F3E;fillColor=#ED7100;strokeColor=#ffffff;dashed=0;verticalLabelPosition=bottom;verticalAlign=top;align=center;html=1;fontSize=12;fontStyle=0;aspect=fixed;shape=mxgraph.aws4.resourceIcon;resIcon=mxgraph.aws4.eks;labelBackgroundColor=default;labelBorderColor=none;whiteSpace=wrap;" parent="PpsXkuYuQDZINH-6zSad-5" vertex="1">
          <mxGeometry x="150" y="60" width="78" height="78" as="geometry" />
        </mxCell>
        <mxCell id="PpsXkuYuQDZINH-6zSad-11" style="edgeStyle=orthogonalEdgeStyle;rounded=0;orthogonalLoop=1;jettySize=auto;html=1;" parent="PpsXkuYuQDZINH-6zSad-5" source="PpsXkuYuQDZINH-6zSad-13" target="PpsXkuYuQDZINH-6zSad-16" edge="1">
          <mxGeometry relative="1" as="geometry" />
        </mxCell>
        <mxCell id="PpsXkuYuQDZINH-6zSad-12" value="Assume Role" style="edgeLabel;html=1;align=center;verticalAlign=middle;resizable=0;points=[];" parent="PpsXkuYuQDZINH-6zSad-11" vertex="1" connectable="0">
          <mxGeometry x="0.3385" y="4" relative="1" as="geometry">
            <mxPoint x="-33" y="13" as="offset" />
          </mxGeometry>
        </mxCell>
        <mxCell id="PpsXkuYuQDZINH-6zSad-13" value="OpenID Connect" style="sketch=0;outlineConnect=0;fontColor=#232F3E;gradientColor=none;fillColor=#DD344C;strokeColor=none;dashed=0;verticalLabelPosition=bottom;verticalAlign=top;align=center;html=1;fontSize=12;fontStyle=0;aspect=fixed;pointerEvents=1;shape=mxgraph.aws4.access_analyzer;labelBackgroundColor=default;" parent="PpsXkuYuQDZINH-6zSad-5" vertex="1">
          <mxGeometry x="30" y="253" width="78" height="77" as="geometry" />
        </mxCell>
        <mxCell id="PpsXkuYuQDZINH-6zSad-15" style="edgeStyle=orthogonalEdgeStyle;rounded=0;orthogonalLoop=1;jettySize=auto;html=1;entryX=1;entryY=0.75;entryDx=0;entryDy=0;entryPerimeter=0;jumpStyle=none;strokeColor=default;" parent="PpsXkuYuQDZINH-6zSad-5" source="PpsXkuYuQDZINH-6zSad-16" target="PpsXkuYuQDZINH-6zSad-10" edge="1">
          <mxGeometry relative="1" as="geometry">
            <Array as="points">
              <mxPoint x="300" y="119" />
            </Array>
          </mxGeometry>
        </mxCell>
        <mxCell id="PpsXkuYuQDZINH-6zSad-16" value="Runner Role" style="sketch=0;outlineConnect=0;fontColor=#232F3E;gradientColor=none;fillColor=#DD344C;strokeColor=none;dashed=0;verticalLabelPosition=bottom;verticalAlign=top;align=center;html=1;fontSize=12;fontStyle=0;aspect=fixed;pointerEvents=1;shape=mxgraph.aws4.role;labelBackgroundColor=default;" parent="PpsXkuYuQDZINH-6zSad-5" vertex="1">
          <mxGeometry x="250" y="269.5" width="78" height="44" as="geometry" />
        </mxCell>
        <mxCell id="PpsXkuYuQDZINH-6zSad-17" value="&lt;font style=&quot;font-size: 21px;&quot;&gt;2&lt;/font&gt;" style="ellipse;whiteSpace=wrap;html=1;aspect=fixed;fontSize=16;strokeColor=default;" parent="PpsXkuYuQDZINH-6zSad-5" vertex="1">
          <mxGeometry x="174" y="201.5" width="30" height="30" as="geometry" />
        </mxCell>
      </root>
    </mxGraphModel>
  </diagram>
  <diagram name="target-role" id="iNkr3LZw5AZp2OjK1eJN">
    <mxGraphModel dx="780" dy="512" grid="1" gridSize="10" guides="1" tooltips="1" connect="1" arrows="1" fold="1" page="1" pageScale="1" pageWidth="850" pageHeight="1100" math="0" shadow="0">
      <root>
        <mxCell id="wRtOmsiwigjaYgXcfDtI-0" />
        <mxCell id="wRtOmsiwigjaYgXcfDtI-1" parent="wRtOmsiwigjaYgXcfDtI-0" />
        <mxCell id="wRtOmsiwigjaYgXcfDtI-5" value="OpsMon" style="points=[[0,0],[0.25,0],[0.5,0],[0.75,0],[1,0],[1,0.25],[1,0.5],[1,0.75],[1,1],[0.75,1],[0.5,1],[0.25,1],[0,1],[0,0.75],[0,0.5],[0,0.25]];outlineConnect=0;gradientColor=none;html=1;whiteSpace=wrap;fontSize=12;fontStyle=0;container=1;pointerEvents=0;collapsible=0;recursiveResize=0;shape=mxgraph.aws4.group;grIcon=mxgraph.aws4.group_account;strokeColor=#CD2264;fillColor=none;verticalAlign=top;align=left;spacingLeft=30;fontColor=#CD2264;dashed=0;" vertex="1" parent="wRtOmsiwigjaYgXcfDtI-1">
          <mxGeometry x="170" y="30" width="200" height="210" as="geometry" />
        </mxCell>
        <mxCell id="wRtOmsiwigjaYgXcfDtI-10" value="Runner" style="sketch=0;points=[[0,0,0],[0.25,0,0],[0.5,0,0],[0.75,0,0],[1,0,0],[0,1,0],[0.25,1,0],[0.5,1,0],[0.75,1,0],[1,1,0],[0,0.25,0],[0,0.5,0],[0,0.75,0],[1,0.25,0],[1,0.5,0],[1,0.75,0]];outlineConnect=0;fontColor=#232F3E;fillColor=#ED7100;strokeColor=#ffffff;dashed=0;verticalLabelPosition=bottom;verticalAlign=top;align=center;html=1;fontSize=12;fontStyle=0;aspect=fixed;shape=mxgraph.aws4.resourceIcon;resIcon=mxgraph.aws4.eks;labelBackgroundColor=default;labelBorderColor=none;whiteSpace=wrap;" vertex="1" parent="wRtOmsiwigjaYgXcfDtI-5">
          <mxGeometry x="30" y="81" width="78" height="78" as="geometry" />
        </mxCell>
        <mxCell id="wRtOmsiwigjaYgXcfDtI-19" value="&lt;font style=&quot;font-size: 21px;&quot;&gt;4&lt;/font&gt;" style="ellipse;whiteSpace=wrap;html=1;aspect=fixed;fontSize=16;strokeColor=default;" vertex="1" parent="wRtOmsiwigjaYgXcfDtI-5">
          <mxGeometry x="150" y="51" width="30" height="30" as="geometry" />
        </mxCell>
        <mxCell id="wRtOmsiwigjaYgXcfDtI-20" value="Target Account" style="points=[[0,0],[0.25,0],[0.5,0],[0.75,0],[1,0],[1,0.25],[1,0.5],[1,0.75],[1,1],[0.75,1],[0.5,1],[0.25,1],[0,1],[0,0.75],[0,0.5],[0,0.25]];outlineConnect=0;gradientColor=none;html=1;whiteSpace=wrap;fontSize=12;fontStyle=0;container=1;pointerEvents=0;collapsible=0;recursiveResize=0;shape=mxgraph.aws4.group;grIcon=mxgraph.aws4.group_account;strokeColor=#CD2264;fillColor=none;verticalAlign=top;align=left;spacingLeft=30;fontColor=#CD2264;dashed=0;" vertex="1" parent="wRtOmsiwigjaYgXcfDtI-1">
          <mxGeometry x="420" y="30" width="200" height="210" as="geometry" />
        </mxCell>
        <mxCell id="wRtOmsiwigjaYgXcfDtI-23" value="Target Role" style="sketch=0;outlineConnect=0;fontColor=#232F3E;gradientColor=none;fillColor=#DD344C;strokeColor=none;dashed=0;verticalLabelPosition=bottom;verticalAlign=top;align=center;html=1;fontSize=12;fontStyle=0;aspect=fixed;pointerEvents=1;shape=mxgraph.aws4.role;labelBackgroundColor=default;" vertex="1" parent="wRtOmsiwigjaYgXcfDtI-20">
          <mxGeometry x="61" y="78" width="78" height="44" as="geometry" />
        </mxCell>
        <mxCell id="wRtOmsiwigjaYgXcfDtI-26" style="edgeStyle=orthogonalEdgeStyle;rounded=0;orthogonalLoop=1;jettySize=auto;html=1;exitX=1;exitY=0.25;exitDx=0;exitDy=0;exitPerimeter=0;" edge="1" parent="wRtOmsiwigjaYgXcfDtI-1" source="wRtOmsiwigjaYgXcfDtI-10" target="wRtOmsiwigjaYgXcfDtI-23">
          <mxGeometry relative="1" as="geometry" />
        </mxCell>
        <mxCell id="wRtOmsiwigjaYgXcfDtI-27" value="Assume Target Role" style="edgeLabel;html=1;align=center;verticalAlign=middle;resizable=0;points=[];" vertex="1" connectable="0" parent="wRtOmsiwigjaYgXcfDtI-26">
          <mxGeometry x="0.1061" y="1" relative="1" as="geometry">
            <mxPoint y="-8" as="offset" />
          </mxGeometry>
        </mxCell>
      </root>
    </mxGraphModel>
  </diagram>
</mxfile>
